<svg
  xmlns="http://www.w3.org/2000/svg"
  viewBox="0 0 741.81 674.55"
  fill="#09090b"
>
  <defs>
    <style>
      .cls-1,
      .cls-2 {
        fill: none;
        stroke: #09090b;
        stroke-miterlimit: 10;
      }
      .cls-1 {
        stroke-width: 20px;
      }
      .cls-2 {
        stroke-width: 10px;
      }
    </style>
  </defs>
  <g id="Layer_2" data-name="Layer 2">
    <g id="Guides">
      <g id="v2-with_eyes" data-name="v2-with eyes">
        <path
          class="cls-1"
          d="M660.09,615.35c-186.9,69.52-378.32,61.56-572.86,0l42.42-494.76H602.21Z"
        ></path>
        <path
          d="M81.43,65.83l19.29,266.6,67.5-174,75.23,90.66,20-117.66,24.32,77.15,52.08-69.43,46.29,82.94,17.36-82.94,44.37,108,36.64-113.8V237.5l50.15-63.65L636.09,326.79,660.09,60S368.84-78.83,81.43,65.83Z"
        ></path>
        <path
          d="M229.66,555.77c94.7,18,190.15,12.63,272.69-41,5.47-3.52,11.7-7.7,17-11.52,5.63-4,11.08-8.2,16.71-12.37a181.94,181.94,0,0,1-13,16.5c-48.34,55.71-124.83,81-197.37,74.77-33.21-2.86-66.55-10.64-96-26.4Z"
        ></path>
        <path
          d="M298.89,541c3.07,19.52-2.3,47.62-12.45,64.6C283.33,586,288.78,558,298.89,541Z"
        ></path>
        <path
          d="M335.16,608.34c-5.26-19-3.12-47.34,5-65.29,5.31,19,3.07,47.33-5,65.29Z"
        ></path>
        <path
          d="M391.18,541.73c9.63,14.54,14.37,38.82,10.78,55.91-9.67-14.49-14.32-38.86-10.78-55.91Z"
        ></path>
        <path
          d="M434.1,523.09c14.21,16.76,26.52,46.28,28.3,68.2-14.26-16.73-26.47-46.28-28.3-68.2Z"
        ></path>
        <path
          d="M476.42,504c13.69,10,26,30.65,28.11,47.47-13.72-9.94-25.95-30.66-28.11-47.47Z"
        ></path>
        <path d="M635.74,454.42,700,443.85s36.31,12.41,14.7,68.07l-74,15.79Z"
        ></path>
        <polygon
          points="675.59 429.52 688.45 533.04 741.81 523.94 718.67 421.81 675.59 429.52"
        ></polygon>
        <path d="M106.07,457.51,41.79,446.94S5.48,459.36,27.1,515l74,15.8Z"
        ></path>
        <polygon
          points="66.22 432.62 53.37 536.13 0 527.03 23.15 424.9 66.22 432.62"
        ></polygon>
        <circle class="cls-2" cx="252.26" cy="402.01" r="74.41"></circle>
        <!-- <path d="M140.32,417s124.35-1.76,201.42-54.56"></path>
        <path
          d="M140.31,416.51A568.25,568.25,0,0,0,243.9,399.22c25.22-7.2,49.53-16.26,73.72-26.14,8-3.48,15.86-7.21,23.87-11.05l.51.75a145,145,0,0,1-21.47,15.92,195.92,195.92,0,0,1-49,21.2q-25.74,6.93-52,11.29a518.34,518.34,0,0,1-52.71,5.58c-8.82.49-17.63.77-26.46.64l0-.9Z"
        ></path> -->
        <circle class="cls-2" cx="483.82" cy="394.41" r="74.41"></circle>
        <!-- <path d="M374.23,367.14s116.28,44.1,207.37,23.36"></path>
        <path
          d="M374.39,366.72a567.65,567.65,0,0,0,102.68,22c26.09,2.59,52,3.1,78.16,2.81,8.7-.3,17.41-.87,26.27-1.49l.2.88a145.16,145.16,0,0,1-25.83,6.91,196.38,196.38,0,0,1-53.37,1.69A531.24,531.24,0,0,1,450,390.9a516.93,516.93,0,0,1-51.07-14.2c-8.38-2.79-16.68-5.77-24.84-9.14l.32-.84Z"
        ></path> -->
        <path
          d="M105.53,259.91c170-1.58,342.36,2.31,512.15,11.71-170,1.63-342.37-2.36-512.15-11.71Z"
        ></path>
        <path
          d="M178.09,231.93c-.17,7.08-.53,14.83-1,21.92-.1,7.46-.9,14.7-4.5,21.48l-.49-.06a39.69,39.69,0,0,1-.14-16.56c.74-3.09,1.59-7.58,2.18-10.75,1.07-5.21,2.26-10.94,3.47-16.09l.5.06Z"
        ></path>
        <path
          d="M217.2,242.26c.73,6.84,1.34,14.34,1.75,21.22.85,7.2,1,14.26-1.75,21.22h-.5a37.69,37.69,0,0,1-2.22-15.92c.35-3.06.63-7.48.81-10.6.4-5.15.86-10.81,1.41-15.92Z"
        ></path>
        <path
          d="M267.73,248.09c1.74,5.77,3.49,12.12,4.94,18,1.93,6.09,3.1,12.14,1.49,18.58l-.49.09a29,29,0,0,1-4.61-13.32c-.12-2.7-.52-6.56-.8-9.28-.39-4.51-.79-9.46-1-14l.49-.09Z"
        ></path>
        <path
          d="M325.16,242.26c.73,6.84,1.34,14.34,1.75,21.22.84,7.2,1,14.26-1.75,21.22h-.5a37.54,37.54,0,0,1-2.22-15.92c.34-3.06.62-7.48.81-10.6.4-5.15.86-10.81,1.41-15.92Z"
        ></path>
        <path
          d="M373.91,242.26c.81,6.82,1.53,14.31,2,21.19.94,7.19,1.16,14.25-1.46,21.24H374a37.47,37.47,0,0,1-2.44-15.88c.3-3.07.53-7.5.67-10.62.33-5.15.72-10.82,1.2-15.93Z"
        ></path>
        <path
          d="M409.64,253.56c1.48,4.9,2.9,10.3,4.07,15.29,1.65,5.22,2.51,10.37.61,15.81l-.49.07a21.28,21.28,0,0,1-4-11.33c0-2.29-.21-5.57-.37-7.89-.17-3.84-.35-8.05-.36-11.87l.5-.08Z"
        ></path>
        <line x1="434.1" y1="253.6" x2="434.1" y2="284.7"></line>
        <path
          d="M434.35,253.6c.74,5,1.33,10.49,1.75,15.55.86,5.35.93,10.51-1.75,15.55h-.5A20.93,20.93,0,0,1,431.62,273c.35-2.25.63-5.49.81-7.78.4-3.78.85-7.92,1.42-11.66Z"
        ></path>
        <line x1="462.4" y1="248.14" x2="469.41" y2="284.7"></line>
        <path
          d="M462.64,248.09c1.84,5.75,3.69,12.09,5.23,18,2,6.07,3.29,12.13,1.78,18.61l-.49.09a29.2,29.2,0,0,1-4.81-13.29c-.17-2.7-.62-6.56-1-9.29-.46-4.51-.94-9.47-1.24-14l.49-.09Z"
        ></path>
        <line x1="510.52" y1="248.14" x2="504.53" y2="284.7"></line>
        <path
          d="M510.76,248.18c-.25,6-.7,12.56-1.26,18.56-.18,6.37-1.07,12.46-4.72,18l-.49-.08a29,29,0,0,1,0-14.07c.78-2.59,1.68-6.35,2.3-9,1.12-4.37,2.38-9.17,3.64-13.48l.49.08Z"
        ></path>
        <line x1="552.95" y1="242.26" x2="558.25" y2="284.7"></line>
        <path
          d="M553.2,242.23c1.57,6.75,3.12,14.17,4.38,21,1.74,7.09,2.74,14.14.92,21.44l-.5.06a38.08,38.08,0,0,1-4.19-15.64c0-3.11-.32-7.56-.52-10.71-.25-5.19-.5-10.91-.59-16.09l.5-.06Z"
        ></path>
        <circle id="left-eye" cx="273.91" cy="416.96" r="35.11"></circle>
        <circle id="right-eye" cx="475.85" cy="417.34" r="35.11"></circle>
      </g>
    </g>
  </g>
</svg>